<svg width="220" height="64" viewBox="0 0 220 64" xmlns="http://www.w3.org/2000/svg">
  <defs>
    <linearGradient id="g" x1="0" y1="0" x2="1" y2="1">
      <stop offset="0%" stop-color="#4f8cff"></stop>
      <stop offset="100%" stop-color="#00e0ff"></stop>
    </linearGradient>
  </defs>

  <!-- icon -->
  <rect x="0" y="0" width="48" height="48" rx="12" fill="#0f172a"></rect>
  <path d="M12 24c0-6 4-10 10-10 3 0 6 1 7.5 3l-3 2.5c-1-1-2.5-1.5-4.5-1.5-3.5 0-6 2.5-6 6s2.5 6 6 6c2 0 3.5-.5 4.5-1.5l3 2.5c-1.5 2-4.5 3-7.5 3-6 0-10-4-10-10z" fill="url(#g)"></path>
</svg>